<?xml version="1.0" encoding="iso-8859-1"?>
<!-- Generator: Adobe Illustrator 18.1.1, SVG Export Plug-In . SVG Version: 6.00 Build 0)  -->
<svg version="1.1" id="Layer_1" xmlns="http://www.w3.org/2000/svg" xmlns:xlink="http://www.w3.org/1999/xlink" x="0px" y="0px"
	 viewBox="-943 525 32 32" style="enable-background:new -943 525 32 32;" xml:space="preserve">
<path style="fill:#FFFFFF;" d="M-934.958,549.906c-0.42,0-2.922,0.092-4.875,0.746c-0.67,0.246-2.208,0.833-3.167,2.138v2.379
	c0,1.629,1.32,1.831,2.947,1.831h12.063c0.069-0.235,0.194-0.379,0.19-0.842c-0.027-2.383-2.55-3.679-6.085-6.199
	C-934.255,549.911-934.495,549.906-934.958,549.906z M-943,541.843v8.264c2.105-1.686,5.76-1.385,7.537-1.506
	c-0.652-0.842-1.4-1.723-1.4-3.169c0-0.793,0.231-1.26,0.463-1.82c-0.512,0.046-1.019,0.096-1.485,0.096
	C-939.994,543.705-941.726,542.901-943,541.843z M-937.011,529.105c-1.209,0-2.518,0.604-3.263,1.538
	c-0.789,0.979-0.905,2.237-0.905,3.452c0,3.125,1.645,7.748,5.642,7.748c1.161,0,2.35-0.296,3.116-1.168
	c0.872-0.999,1.21-2.317,1.21-2.989C-931.21,534.326-933.154,529.105-937.011,529.105z M-940.053,525
	c-1.627,0-2.947,0.843-2.947,2.947v2.527c0.116-0.112,0.255-0.241,0.378-0.348c2.65-2.193,5.553-2.554,7.99-2.6h9.821l-2.61,2.106
	h-2.842c1.141,0.989,2.842,2.754,2.842,5.904c0,3.452-1.816,5.096-3.769,6.632c-0.604,0.605-1.306,1.258-1.306,2.285
	c0,1.024,0.7,1.589,1.21,2.01l1.674,1.296c2.045,1.728,4.717,3.727,4.717,6.947c0,0.862-0.1,1.64-0.381,2.294h11.328
	c1.629,0,2.948-0.202,2.948-1.831v-19.274h-5.895v5.948h-2.526v-5.948h-5.895v-2.473h5.895v-5.896h2.526v5.896H-911v-5.475
	c0-2.104-1.319-2.947-2.946-2.947H-940.053z"/>
</svg>
