<?xml version="1.0" encoding="iso-8859-1"?>
<!-- Generator: Adobe Illustrator 18.1.1, SVG Export Plug-In . SVG Version: 6.00 Build 0)  -->
<svg version="1.1" id="Layer_1" xmlns="http://www.w3.org/2000/svg" xmlns:xlink="http://www.w3.org/1999/xlink" x="0px" y="0px"
	 viewBox="-943 525 32 32" style="enable-background:new -943 525 32 32;" xml:space="preserve">
<path style="fill:#FFFFFF;" d="M-916.15,543.908c0-1.061-0.139-1.983-0.41-2.773c-0.273-0.79-0.648-1.443-1.125-1.962
	c-0.479-0.519-1.043-0.902-1.689-1.15c-0.648-0.248-1.359-0.372-2.131-0.372c-0.615,0-1.15,0.074-1.605,0.22
	c-0.453,0.147-0.848,0.339-1.176,0.575c-0.33,0.237-0.609,0.49-0.836,0.761c-0.229,0.271-0.42,0.519-0.58,0.745v-1.962h-4.64
	c0.023,0.383,0.033,1.127,0.033,2.232v4.194c0,0-0.01,2.491-0.033,7.475h4.64v-7.778c0-0.204,0.012-0.402,0.035-0.594
	c0.02-0.191,0.066-0.367,0.135-0.522c0.182-0.406,0.461-0.79,0.836-1.15c0.375-0.36,0.893-0.542,1.553-0.542
	c0.842,0,1.445,0.288,1.809,0.863c0.363,0.574,0.547,1.335,0.547,2.282v7.441h4.639v-7.983H-916.15z M-935.256,536.096
	c0.82,0,1.468-0.238,1.945-0.71c0.478-0.474,0.705-1.038,0.683-1.691c0-0.677-0.233-1.246-0.7-1.708
	c-0.466-0.464-1.098-0.695-1.893-0.695c-0.796,0-1.433,0.231-1.91,0.694c-0.478,0.463-0.717,1.031-0.717,1.708
	c0,0.654,0.227,1.217,0.682,1.691c0.455,0.473,1.08,0.71,1.876,0.71h0.034V536.096z M-932.936,537.989h-4.639v13.901h4.639V537.989z
	 M-911.818,525.001c0.227,0,0.422,0.073,0.58,0.22c0.16,0.147,0.238,0.333,0.238,0.559v30.439c0,0.228-0.078,0.412-0.238,0.559
	c-0.158,0.147-0.354,0.221-0.58,0.221h-30.363c-0.227,0-0.421-0.073-0.581-0.221c-0.158-0.147-0.238-0.332-0.238-0.559V525.78
	c0-0.226,0.08-0.412,0.239-0.559c0.16-0.146,0.354-0.22,0.581-0.22H-911.818L-911.818,525.001z"/>
</svg>
