<?xml version="1.0" encoding="iso-8859-1"?>
<!-- Generator: Adobe Illustrator 18.1.1, SVG Export Plug-In . SVG Version: 6.00 Build 0)  -->
<svg version="1.1" id="Layer_1" xmlns="http://www.w3.org/2000/svg" xmlns:xlink="http://www.w3.org/1999/xlink" x="0px" y="0px"
	 viewBox="-943 525 32 32" style="enable-background:new -943 525 32 32;" xml:space="preserve">
<path style="fill:#FFFFFF;" d="M-911,525.778v30.443c0,0.227-0.079,0.412-0.239,0.559c-0.158,0.146-0.353,0.22-0.579,0.22h-30.363
	c-0.227,0-0.421-0.074-0.581-0.221c-0.159-0.146-0.238-0.332-0.238-0.558v-30.443c0-0.226,0.079-0.412,0.238-0.559
	c0.16-0.146,0.354-0.219,0.581-0.219h30.363c0.227,0,0.421,0.073,0.579,0.22C-911.079,525.366-911,525.552-911,525.778z
	 M-920.757,553.279v-11.298h4.162l0.171-4.06h-4.333v-2.976c0-0.564,0.096-1.009,0.289-1.336c0.194-0.327,0.654-0.479,1.381-0.457
	h2.561l0.103-3.788c-0.319-0.045-0.645-0.073-0.974-0.084c-0.329-0.012-0.631-0.028-0.903-0.051
	c-0.319-0.022-0.638-0.033-0.954-0.033c-1.002-0.068-1.86,0.039-2.577,0.321c-0.718,0.28-1.309,0.675-1.775,1.183
	c-0.465,0.507-0.812,1.088-1.04,1.742c-0.227,0.654-0.341,1.319-0.341,1.996v3.484h-2.934v4.06h2.934v11.298h4.23V553.279z"/>
</svg>
