<?xml version="1.0" encoding="iso-8859-1"?>
<!-- Generator: Adobe Illustrator 18.1.1, SVG Export Plug-In . SVG Version: 6.00 Build 0)  -->
<svg version="1.1" id="Layer_1" xmlns="http://www.w3.org/2000/svg" xmlns:xlink="http://www.w3.org/1999/xlink" x="0px" y="0px"
	 viewBox="-943 525 32 32" style="enable-background:new -943 525 32 32;" xml:space="preserve">
<path style="fill:#FFFFFF;" d="M-938.74,548.467c-2.35,0-4.26,1.916-4.26,4.252c0,2.349,1.91,4.244,4.26,4.244
	c2.358,0,4.265-1.896,4.265-4.244C-934.475,550.383-936.382,548.467-938.74,548.467z M-942.994,535.874v6.132
	c3.993,0,7.748,1.562,10.577,4.392c2.825,2.821,4.383,6.594,4.383,10.603h6.161C-921.874,545.35-931.351,535.874-942.994,535.874z
	 M-942.987,525v6.137c14.243,0,25.836,11.603,25.836,25.863H-911C-911,539.361-925.353,525-942.987,525z"/>
</svg>
