<?xml version="1.0" encoding="iso-8859-1"?>
<!-- Generator: Adobe Illustrator 18.1.1, SVG Export Plug-In . SVG Version: 6.00 Build 0)  -->
<svg version="1.1" id="Layer_1" xmlns="http://www.w3.org/2000/svg" xmlns:xlink="http://www.w3.org/1999/xlink" x="0px" y="0px"
	 viewBox="-943 525 32 32" style="enable-background:new -943 525 32 32;" xml:space="preserve">
<path style="fill:#FFFFFF;" d="M-911.943,531.052c-0.159,0.048-0.317,0.092-0.473,0.132c-0.965,0.249-1.053-0.079-0.355-0.805
	c0.314-0.325,0.588-0.678,0.83-1.061c0.537-0.856,0.07-1.229-0.844-0.829c-0.326,0.142-0.66,0.271-0.996,0.388
	c-0.942,0.323-2.28-0.165-3.119-0.71c-1.062-0.688-2.266-1.033-3.617-1.033c-1.891,0-3.504,0.683-4.838,2.047
	c-1.333,1.365-2,3.016-2,4.951c0,0.265,0.015,0.533,0.044,0.805c0.048,0.444-0.682,0.766-1.666,0.623
	c-2.131-0.308-4.155-0.969-6.073-1.981c-1.903-1.004-3.582-2.267-5.037-3.79c-0.696-0.729-1.637-0.666-1.897,0.317
	c-0.155,0.589-0.232,1.202-0.232,1.838c0,1.2,0.275,2.312,0.825,3.336c0.273,0.511,0.594,0.972,0.963,1.386
	c0.619,0.696,0.525,1.099-0.338,0.852c-0.861-0.247-1.494-0.615-1.494-0.591s0,0.044,0,0.044c0,1.689,0.519,3.174,1.556,4.452
	c0.64,0.789,1.381,1.396,2.228,1.824c0.892,0.453,1.306,0.705,0.808,0.77c-0.301,0.041-0.604,0.061-0.908,0.061
	c-0.207,0-0.422-0.01-0.648-0.029c-0.356-0.031-0.421,0.73,0.121,1.584c0.429,0.68,0.979,1.277,1.65,1.793
	c0.681,0.525,1.415,0.902,2.202,1.133c0.956,0.279,1.148,0.787,0.296,1.311c-2.112,1.297-4.448,1.945-7.009,1.945
	c-0.288,0-0.562-0.008-0.826-0.021c-0.456-0.021-0.151,0.389,0.73,0.863c2.754,1.475,5.735,2.211,8.945,2.211
	c2.427,0,4.707-0.393,6.838-1.18c2.13-0.787,3.95-1.842,5.462-3.164c1.51-1.32,2.812-2.842,3.906-4.561s1.908-3.514,2.443-5.383
	c0.537-1.87,0.807-3.745,0.807-5.622c0-0.17-0.002-0.321-0.006-0.456c-0.004-0.251,0.646-0.932,1.371-1.628
	c0.326-0.315,0.639-0.645,0.938-0.992C-910.697,531.118-910.988,530.768-911.943,531.052z"/>
</svg>
