<?xml version="1.0" encoding="iso-8859-1"?>
<!-- Generator: Adobe Illustrator 18.1.1, SVG Export Plug-In . SVG Version: 6.00 Build 0)  -->
<svg version="1.1" id="Capa_1" xmlns="http://www.w3.org/2000/svg" xmlns:xlink="http://www.w3.org/1999/xlink" x="0px" y="0px"
	 viewBox="-916 498 86 86" style="enable-background:new -916 498 86 86;" xml:space="preserve">
<path style="fill:#FFFFFF;" d="M-838.725,515.176c1.363,2.563,2.039,5.744,2.039,9.557c0,8.666-3.652,15.652-10.945,20.958
	c-7.299,5.312-17.492,7.961-30.59,7.961h-3.066c-2.307,0-4.609,1.812-5.129,4.021l-3.682,15.695
	c-0.512,2.219-2.82,4.031-5.123,4.031h-6.705l-0.6,2.563c-0.521,2.226,0.94,4.038,3.243,4.038h10.746
	c2.305,0,4.613-1.812,5.123-4.031l3.684-15.695c0.52-2.209,2.822-4.021,5.129-4.021h3.066c13.098,0,23.291-2.647,30.588-7.961
	c7.295-5.308,10.947-12.294,10.947-20.96c0-3.812-0.678-6.992-2.039-9.557c-1.357-2.547-3.33-4.629-5.902-6.217
	C-838.217,515.393-838.439,515.332-838.725,515.176z M-896.783,566.77l3.683-15.696c0.52-2.209,2.82-4.021,5.127-4.021h3.066
	c13.101,0,23.294-2.648,30.591-7.961c7.295-5.307,10.944-12.293,10.944-20.959c0-3.812-0.676-6.992-2.039-9.557
	c-1.354-2.547-3.33-4.629-5.899-6.215c-2.635-1.611-5.73-2.73-9.314-3.385c-3.597-0.65-7.8-0.976-12.632-0.976h-22.377
	c-2.311,0-4.613,1.801-5.137,4.021l-15.125,64.747c-0.521,2.221,0.939,4.031,3.242,4.031h10.746
	C-899.604,570.799-897.295,568.988-896.783,566.77z M-888.008,529.201l3.229-13.744c0.523-2.213,2.83-4.023,5.125-4.023h3.518
	c4.1,0,7.207,0.688,9.291,2.062c2.082,1.361,3.128,3.455,3.128,6.297c0,4.299-1.625,7.617-4.851,9.945
	c-3.229,2.324-7.719,3.5-13.52,3.5h-2.662C-887.057,533.238-888.516,531.418-888.008,529.201z"/>
</svg>
