<?xml version="1.0" encoding="iso-8859-1"?>
<!-- Generator: Adobe Illustrator 18.1.1, SVG Export Plug-In . SVG Version: 6.00 Build 0)  -->
<svg version="1.1" id="Layer_1" xmlns="http://www.w3.org/2000/svg" xmlns:xlink="http://www.w3.org/1999/xlink" x="0px" y="0px"
	 viewBox="-703 285 512 512" style="enable-background:new -703 285 512 512;" xml:space="preserve">
<path style="fill:#FFFFFF;" d="M-211,394.5c-17.4,7.7-36,12.9-55.601,15.3c20-12,35.4-31,42.601-53.6
	c-18.7,11.1-39.4,19.2-61.5,23.5c-17.7-18.9-42.9-30.7-70.7-30.7c-53.5,0-96.8,43.4-96.8,96.9c0,7.6,0.8,15,2.5,22.1
	c-80.5-4-151.9-42.6-199.6-101.3c-8.3,14.3-13.1,31-13.1,48.7c0,33.6,17.1,63.3,43.1,80.7c-15.9-0.4-30.9-4.8-43.9-12.1
	c0,0.4,0,0.8,0,1.2c0,47,33.399,86.1,77.7,95c-8.101,2.2-16.7,3.4-25.5,3.4c-6.2,0-12.3-0.6-18.2-1.8
	c12.3,38.5,48.1,66.5,90.5,67.301c-33.101,26-74.9,41.5-120.3,41.5c-7.801,0-15.5-0.5-23.101-1.4C-640.1,717-589.2,733-534.6,733
	C-356.4,733-259,585.3-259,457.2c0-4.2-0.101-8.4-0.301-12.5C-240.4,431-224,413.9-211,394.5z"/>
</svg>
